<svg id="visual" viewBox="0 0 900 600" width="900" height="600" xmlns="http://www.w3.org/2000/svg" xmlns:xlink="http://www.w3.org/1999/xlink" version="1.1"><rect x="0" y="0" width="900" height="600" fill="#111111"></rect><defs><linearGradient id="grad1_0" x1="33.3%" y1="100%" x2="100%" y2="0%"><stop offset="20%" stop-color="#111111" stop-opacity="1"></stop><stop offset="80%" stop-color="#111111" stop-opacity="1"></stop></linearGradient></defs><defs><linearGradient id="grad2_0" x1="0%" y1="100%" x2="66.7%" y2="0%"><stop offset="20%" stop-color="#111111" stop-opacity="1"></stop><stop offset="80%" stop-color="#111111" stop-opacity="1"></stop></linearGradient></defs><g transform="translate(900, 600)"><path d="M-270.4 0C-269.9 -38.6 -269.5 -77.2 -249.8 -103.5C-230.2 -129.8 -191.4 -143.7 -164 -164C-136.7 -184.4 -120.7 -211.2 -95.3 -230C-69.8 -248.8 -34.9 -259.6 0 -270.4L0 0Z" fill="#0BD8B6"></path></g><g transform="translate(0, 0)"><path d="M270.4 0C261.8 35 253.2 70.1 236.5 98C219.9 125.8 195.2 146.5 173.2 173.2C151.3 199.9 131.9 232.6 103.5 249.8C75.1 267 37.5 268.7 0 270.4L0 0Z" fill="#0BD8B6"></path></g></svg>