<svg id="visual" viewBox="0 0 900 600" width="900" height="600" xmlns="http://www.w3.org/2000/svg" xmlns:xlink="http://www.w3.org/1999/xlink" version="1.1"><path d="M503 600L539 550C575 500 647 400 641 300C635 200 551 100 509 50L467 0L900 0L900 50C900 100 900 200 900 300C900 400 900 500 900 550L900 600Z" fill="#111111"></path><path d="M161 600L230 550C299 500 437 400 488 300C539 200 503 100 485 50L467 0L468 0L510 50C552 100 636 200 642 300C648 400 576 500 540 550L504 600Z" fill="#0bd8b6"></path><path d="M0 600L0 550C0 500 0 400 0 300C0 200 0 100 0 50L0 0L468 0L486 50C504 100 540 200 489 300C438 400 300 500 231 550L162 600Z" fill="#111111"></path></svg>